<svg xmlns="http://www.w3.org/2000/svg" width="47.985" height="37.538" viewBox="0 0 47.985 37.538"><g transform="translate(0 37.538) rotate(-90)"><rect width="8.598" height="34.391" rx="4.299" transform="translate(0 4.299) rotate(-30)" fill="#1eb2a6"/><rect width="8.598" height="34.391" rx="4.299" transform="translate(30.092 0) rotate(30)" fill="#1eb2a6"/><path d="M2.535,12.518q-.2-.088-.385-.2A4.269,4.269,0,0,1,.577,10.747l-.037-.064A4.3,4.3,0,0,1,.577,6.448L4.3,0,8.022,6.448a4.3,4.3,0,0,1,.039,4.231l-.039.067A4.269,4.269,0,0,1,6.449,12.32q-.179.1-.364.188a4.3,4.3,0,0,1-3.55.01Z" transform="translate(14.469 19.612)" fill="#204051"/><path d="M2.535,12.518q-.2-.088-.385-.2A4.269,4.269,0,0,1,.577,10.747l-.037-.064A4.3,4.3,0,0,1,.577,6.448L4.3,0,8.022,6.448a4.3,4.3,0,0,1,.039,4.231l-.039.067A4.269,4.269,0,0,1,6.449,12.32q-.179.1-.364.188a4.3,4.3,0,0,1-3.55.01Z" transform="translate(23.068 47.985) rotate(180)" fill="#204051"/></g></svg>